<svg xmlns="http://www.w3.org/2000/svg" width="1440" height="700" fill="none"><g fill="#F2F4FF" clip-path="url(#a)"><path d="M669.281 221.218h224.575V-2.996L669.281 221.218zM.001 475.961v224.254h224.534L.001 475.961zm225 0v224.254h224.534L225.001 475.961z"/><path d="M445 221.218h224.575V-2.996L445 221.218zm770 478.996h224.57V476L1215 700.214zM.001 252v224.254h224.534L.001 252z"/><path d="M893.719-2.997H669.144v224.214L893.719-2.997zM224.534 700.078V475.824H0l224.534 224.254zm225 0V475.824H225l224.534 224.254z"/><path d="M893.574-2.9h545.996v223.68H893.574V-2.9z"/></g><defs><clipPath id="a"><path fill="#fff" d="M0 0h1440v700H0z"/></clipPath></defs></svg>